<svg width="1404" height="450" viewBox="0 0 1404 450" fill="none" xmlns="http://www.w3.org/2000/svg">
<g id="Frame 4">
<path id="Vector 51" d="M14 284.5C14.1648 282.805 14.4071 280.987 14.7337 279.072M27.5 284.5C72.4282 285.202 140 248 124.524 229.5M14.7337 279.072C19.0314 253.865 37.9293 211.731 87 209.5C106.668 208.606 118.832 217.125 124.524 229.5M14.7337 279.072L27.5 60M124.524 229.5C133.183 250.881 154.9 290.729 172.5 279.072C190.1 267.414 206.333 221.167 208.5 209.5L116.5 436M232 271.5C224.667 196.5 214.4 47.2 232 50M184 197C211.833 179.333 268.4 148 272 164M307 18L277 271.5C284.167 254.5 308.7 216.8 315.5 224C322.3 231.2 335 251.333 340.5 260.5C350.167 260.167 370.7 260.5 379.5 252.5C402.3 239.3 407.333 230 407 227C400.333 218.5 383.7 206.6 370.5 227C360.5 260.723 355 269 387 269C419 269 460.5 252.5 466 252.5M570 260.5C566.5 269.5 456 271.5 478 235C495.6 205.8 541 195.5 561.5 194C565.5 213.167 572.8 253.3 570 260.5ZM570 260.5L578 271.5M616.5 269V161C651.167 154.833 715.5 150.6 695.5 183C675.5 215.4 643.167 223.5 629.5 223.5M641 6C616 92.6667 572 267.1 596 271.5M749 17L707.5 271.5C724 227.833 758.7 164.5 765.5 260.5L788.5 248C783.333 234 783.6 203.6 826 194L838 248M838 248C820.167 251.667 785.6 257.9 790 253.5C794.4 249.1 823.833 248 838 248ZM838 248L856 253.5M948 55.5L914.933 215L914.78 215.737M905.5 260.5L914.78 215.737M926 258C948 277 1007.5 248 1027.5 225C1050.3 166.6 961.853 194.491 914.78 215.737M1000 246.398L1076 225C1102.4 208.6 1082.67 197.5 1069.5 194C1061.83 189.5 1043.8 198.2 1041 209C1037.5 222.5 1016.5 253.5 1043 253.5C1069.5 253.5 1097 240 1110 227C1115.77 221.227 1135.86 194.028 1160.23 138M1219 6C1201.43 43.1512 1179.77 93.0905 1160.23 138M1160.23 138C1168.52 214.833 1181.96 346.9 1169.5 260.5C1153.92 152.5 1110 152.5 1116.5 152.5C1121.7 152.5 1129.67 152.5 1133 152.5L1393 138" stroke="black" stroke-width="10"/>
<rect x="0.5" y="0.5" width="1403" height="449" stroke="black"/>
</g>
</svg>
