<svg width="1088" height="1021" viewBox="0 0 1088 1021" fill="none" xmlns="http://www.w3.org/2000/svg">
<g id="Frame 3">
<g id="thewhole">
<g id="owl">
<g id="Group 14">
<path id="Vector 19" d="M632.903 624.175C669.547 639.297 660.574 611.07 651.508 595.066C637.552 610.508 583.982 626.213 559.947 631.826C571.613 664.786 581.77 666.065 588.797 657.886C592.551 653.517 595.411 646.447 597.13 640.067C621.379 662.206 631.082 638.697 632.903 624.175Z" fill="#FBAF19"/>
<path id="Vector 23" d="M446.88 625.067C409.539 638.372 419.886 610.619 429.727 595.079C442.907 611.188 495.64 629.504 519.369 636.289C506.101 668.637 495.893 669.417 489.277 660.902C485.742 656.354 483.232 649.153 481.828 642.696C456.523 663.617 447.986 639.66 446.88 625.067Z" fill="#FBAF19"/>
<path id="Vector 20" d="M535.288 640.17C330 632.668 305.608 355.66 339.118 322.083C405.294 355.114 579.009 401.433 744.458 322.462C777.968 356.008 744.319 647.809 535.288 640.17Z" fill="#88CAC6"/>
<path id="HHHHHHH" d="M688.148 484.051C687.984 500.149 709.132 611.275 736.611 611.555C745.634 611.647 768.608 569.843 780.149 486.419C780.544 447.54 769.835 376.853 759.291 353.448C750.813 334.63 733.879 368.419 721.632 368.295C694.153 368.015 688.861 413.912 688.148 484.051Z" fill="#009E8F"/>
<g id="WLWLWLWLWLW">
<path id="Ellipse 27" d="M684.292 479.84C684.128 495.938 705.276 607.065 732.755 607.344C741.778 607.436 764.752 565.632 776.293 482.208C776.688 443.329 765.979 372.642 755.435 349.237C746.957 330.419 730.023 364.209 717.776 364.084C690.297 363.804 685.006 409.702 684.292 479.84Z" fill="#009E8F"/>
<path id="Ellipse 28" d="M723.61 491.852C728.031 507.331 779.908 607.855 806.332 600.309C815.009 597.831 825.146 551.22 812.486 467.958C801.808 430.572 771.44 365.849 754.674 346.409C741.195 330.779 734.569 367.989 722.793 371.352C696.369 378.899 704.348 424.406 723.61 491.852Z" fill="#009E8F"/>
<path id="Ellipse 29" d="M762.849 498.401C771.177 512.954 847.885 602.146 871.736 588.497C879.568 584.015 877.392 534.817 843.457 453.991C823.343 418.843 776.916 360.721 755.506 345.016C738.293 332.39 741.462 371.329 730.832 377.412C706.981 391.061 726.564 434.994 762.849 498.401Z" fill="#009E8F"/>
<path id="Ellipse 30" d="M809.523 491.102C822.045 502.877 923.568 567.771 942.394 547.752C948.575 541.179 931.327 494.007 873.678 425.115C843.436 396.675 780.715 353.378 755.209 344.192C734.701 336.807 749.75 373.732 741.36 382.654C722.534 402.672 754.967 439.796 809.523 491.102Z" fill="#009E8F"/>
<path id="Ellipse 31" d="M853.843 470.556C869.928 478.434 990.542 512.704 1002.63 488.025C1006.6 479.922 974.516 439.101 895.751 388.617C856.901 369.588 781.359 345.313 753.339 343.595C730.81 342.213 757.445 373.731 752.058 384.73C739.97 409.409 783.759 436.229 853.843 470.556Z" fill="#009E8F"/>
<path id="Ellipse 32" d="M887.235 446.603C905.433 451.614 1036.72 464.664 1044.01 438.17C1046.41 429.471 1004.88 394.646 913.287 358.331C869.335 346.227 786.523 335.273 757.325 338.416C733.85 340.942 767.834 367.509 764.582 379.316C757.286 405.81 807.946 424.766 887.235 446.603Z" fill="#009E8F"/>
<path id="Ellipse 33" d="M925.016 395.751C945.635 394.1 1085.91 360.52 1083.72 333.128C1083 324.133 1027.36 305.968 919.506 303.878C869.704 307.865 780.22 326.493 751.241 339.63C727.941 350.192 772.763 363.246 773.741 375.455C775.934 402.847 835.173 402.944 925.016 395.751Z" fill="#009E8F"/>
</g>
<path id="LHLHLLHLHLHL" d="M405.035 485.575C406.188 501.632 391.91 613.849 364.5 615.818C355.5 616.465 330 576.152 313.354 493.596C310.569 454.814 316.914 383.603 326 359.593C333.305 340.29 352.284 372.974 364.5 372.097C391.91 370.128 400.012 415.613 405.035 485.575Z" fill="#009E8F"/>
<g id="WLWLWLWLWLW_2">
<path id="Ellipse 27_2" d="M410.418 487.838C410.582 503.935 389.434 615.062 361.955 615.342C352.933 615.433 329.959 573.629 318.418 490.206C318.022 451.326 328.731 380.639 339.276 357.234C347.754 338.416 364.688 372.206 376.934 372.081C404.413 371.801 409.704 417.699 410.418 487.838Z" fill="#009E8F"/>
<path id="Ellipse 28_2" d="M371.1 499.849C366.679 515.328 314.802 615.852 288.378 608.306C279.702 605.828 269.565 559.217 282.225 475.956C292.902 438.569 323.271 373.846 340.036 354.406C353.515 338.776 360.141 375.986 371.917 379.35C398.341 386.896 390.362 432.403 371.1 499.849Z" fill="#009E8F"/>
<path id="Ellipse 29_2" d="M331.861 506.398C323.533 520.951 246.826 610.143 222.975 596.494C215.143 592.013 217.319 542.814 251.254 461.988C271.367 426.84 317.794 368.718 339.204 353.014C356.418 340.387 353.248 379.326 363.878 385.409C387.729 399.058 368.146 442.991 331.861 506.398Z" fill="#009E8F"/>
<path id="Ellipse 30_2" d="M285.187 499.099C272.666 510.874 171.144 575.768 152.318 555.749C146.136 549.176 163.384 502.004 221.033 433.112C251.275 404.672 313.995 361.375 339.502 352.189C360.009 344.804 344.96 381.729 353.35 390.651C372.176 410.669 339.743 447.793 285.187 499.099Z" fill="#009E8F"/>
<path id="Ellipse 31_2" d="M240.868 478.553C224.783 486.431 104.17 520.701 92.0823 496.022C88.1132 487.919 120.196 447.098 198.96 396.614C237.81 377.586 313.352 353.31 341.372 351.592C363.9 350.21 337.265 381.728 342.652 392.727C354.74 417.406 310.952 444.226 240.868 478.553Z" fill="#009E8F"/>
<path id="Ellipse 32_2" d="M207.476 454.6C189.278 459.611 57.9945 472.661 50.6979 446.167C48.302 437.468 89.8324 402.643 181.424 366.328C225.376 354.224 308.188 343.27 337.385 346.413C360.86 348.939 326.876 375.506 330.128 387.314C337.425 413.807 286.765 432.763 207.476 454.6Z" fill="#009E8F"/>
<path id="Ellipse 33_2" d="M169.696 403.748C149.076 402.097 8.79988 368.517 10.9929 341.125C11.7129 332.13 67.3538 313.965 175.206 311.875C225.007 315.862 314.49 334.49 343.47 347.627C366.769 358.189 321.947 371.243 320.97 383.452C318.777 410.844 259.538 410.941 169.696 403.748Z" fill="#009E8F"/>
</g>
<path id="Vector 51" d="M391.5 569.5C350.5 530.833 285.4 438 353 376L410 440C412.333 466.667 411.9 529.9 391.5 569.5Z" fill="#88CAC6" stroke="#88CAC6"/>
<g id="Group 3">
<ellipse id="Ellipse 7" cx="421" cy="258.066" rx="137" ry="137.037" fill="#FFCC66"/>
<ellipse id="Ellipse 8" cx="659" cy="258.066" rx="137" ry="137.037" fill="#FFCC66"/>
</g>
<path id="Vector 22" d="M538 193.683C472 179.679 431.167 118.496 419 89.6551C436 78.8189 484.4 58.1466 538 60.1472C591.6 58.1411 640 78.8706 657 89.7367C644.833 118.657 604 179.641 538 193.683Z" fill="#009E8F"/>
<g id="Group 4">
<ellipse id="Ellipse 9" cx="426" cy="262.067" rx="116" ry="114.031" fill="#88CAC6"/>
<ellipse id="Ellipse 10" cx="654" cy="262.067" rx="116" ry="114.031" fill="#88CAC6"/>
</g>
<g id="Group 7">
<ellipse id="Ellipse 11" cx="460" cy="262.067" rx="82" ry="82.0224" fill="#009E8F"/>
<ellipse id="Ellipse 12" cx="624" cy="262.067" rx="82" ry="82.0224" fill="#009E8F"/>
</g>
<g id="Group 8">
<ellipse id="Ellipse 13" cx="469.5" cy="262.566" rx="72.5" ry="72.5198" fill="white"/>
<ellipse id="Ellipse 14" cx="614.5" cy="261.566" rx="72.5" ry="72.5198" fill="white"/>
</g>
<g id="Group 9">
<ellipse id="Ellipse 15" cx="475" cy="258.066" rx="45" ry="45.0123" fill="#333333"/>
<ellipse id="Ellipse 16" cx="609" cy="258.066" rx="45" ry="45.0123" fill="#333333"/>
</g>
<g id="Group 10">
<ellipse id="Ellipse 17" cx="475.5" cy="257.566" rx="24.5" ry="24.5067" fill="#54BBFF"/>
<ellipse id="Ellipse 18" cx="609.5" cy="257.566" rx="24.5" ry="24.5067" fill="#54BBFF"/>
</g>
<g id="Group 12">
<path id="Vector 26" d="M364 381.099C395.833 395.437 475.3 402.905 538.5 318.082C601.699 402.9 681.165 395.432 712.998 381.096" stroke="#007E97" stroke-width="15" stroke-linecap="round"/>
<path id="Vector 25" d="M538.501 322.083C472.403 404.987 389.293 397.687 356 383.674C377.44 408.441 425.654 459.539 446.989 465.796C468.324 472.053 504.336 506.857 519.675 523.477C522.813 527.713 531.389 536.578 538.501 538.142C545.612 536.578 554.188 527.701 557.326 523.465C572.665 506.846 608.677 472.044 630.012 465.788C651.347 459.531 699.56 408.436 721 383.671C687.707 397.683 604.598 404.982 538.501 322.083Z" fill="#88CAC6"/>
<path id="Vector 24" d="M523.168 326.084C506.368 275.67 527.835 256.398 540.668 253.064C553.502 256.398 574.469 275.67 557.668 326.084C554.334 337.254 548.368 359.993 549.168 361.594L548.168 372.097L540.168 383.1L532.168 372.097V361.594C532.968 359.993 526.501 337.254 523.168 326.084Z" fill="#515151"/>
<path id="Vector 30" d="M398 122.023C372.905 86.2722 324.333 57.1722 300 48.5032C333.5 44.0019 381 71.5095 386.5 78.0113C392 84.513 431 169.036 398 122.023Z" fill="#CCCCCC"/>
<path id="Vector 32" d="M683.118 121.892C708.213 86.2043 756.786 57.156 781.12 48.5023C747.619 44.009 700.118 71.4678 694.618 77.958C689.118 84.4483 650.117 168.821 683.118 121.892Z" fill="#CCCCCC"/>
<path id="Vector 29" d="M414 77.5163C398 41.9065 343.333 23.0014 318 18C342.333 33.5042 391.5 74.0153 394 105.524C394.333 108.358 396.9 116.827 404.5 128.03C414 142.034 412.5 140.533 424.5 153.037C434.1 163.04 446.5 171.542 451.5 174.543C460.167 178.711 477.8 187.246 479 188.046C480.5 189.047 493.5 195.048 503 204.551C512.5 214.054 517 219.055 525.5 232.559C532.3 243.362 539.5 250.73 540.5 253.064C541.5 250.73 547.7 243.362 554.5 232.559C563 219.055 567.5 214.054 577 204.551C586.5 195.048 599.5 189.047 601 188.046C602.2 187.246 619.833 178.711 628.5 174.543C633.5 171.542 645.9 163.04 655.5 153.037C667.5 140.533 666 142.034 675.5 128.03C683.1 116.827 685.667 108.358 686 105.524C688.5 74.0153 737.667 33.5042 762 18C736.667 23.0014 682 41.9065 666 77.5163C646 122.028 591.5 182.045 540 188.046C488.5 182.045 434 122.028 414 77.5163Z" fill="#E6E6E6"/>
</g>
<g id="Group 13">
<path id="Vector 33" d="M507 98.3901C518.833 89.0542 547.8 75.984 569 98.3901" stroke="#007E97"/>
<path id="Vector 34" d="M460 129.399C471.833 120.063 500.8 106.993 522 129.399" stroke="#007E97"/>
<path id="Vector 35" d="M552 127.398C563.833 118.062 592.8 104.992 614 127.398" stroke="#007E97"/>
</g>
<g id="Group 11">
<path id="Vector 43" d="M508 423.479C519.833 414.143 548.8 401.073 570 423.479" stroke="#007E97"/>
<path id="Vector 44" d="M508 483.495C519.833 474.159 548.8 461.089 570 483.495" stroke="#007E97"/>
<path id="Vector 46" d="M461 454.488C472.833 445.152 501.8 432.081 523 454.488" stroke="#007E97"/>
<path id="Vector 47" d="M432 424.479C443.833 415.143 472.8 402.073 494 424.479" stroke="#007E97"/>
<path id="Vector 49" d="M553 452.487C564.833 443.151 593.8 430.081 615 452.487" stroke="#007E97"/>
<path id="Vector 50" d="M586 422.479C597.833 413.143 626.8 400.073 648 422.479" stroke="#007E97"/>
</g>
</g>
<g id="glasses3">
<path id="Vector" d="M709.56 194.604C662.64 185.983 614.51 186.418 567.774 195.885C562.622 197.149 557.849 199.625 553.852 203.105C549.855 206.585 546.751 210.97 544.796 215.893C539.508 214.394 533.9 214.455 528.649 216.068C526.595 211.185 523.403 206.861 519.34 203.456C515.276 200.05 510.458 197.662 505.286 196.489C458.439 187.987 410.406 188.507 363.775 198.021V198.021C355.779 199.561 348.646 204.016 343.764 210.52C338.882 217.025 336.601 225.112 337.363 233.21C342.141 285.704 349.815 318.805 360.35 331.725C368.647 341.851 394.64 345.417 422.59 345.132C455.389 344.839 490.896 339.266 503.757 333.581C510.028 330.694 524.384 323.705 531.022 238.855C531.715 237.868 532.65 237.076 533.738 236.552C534.825 236.029 536.029 235.792 537.235 235.865C538.462 235.757 539.697 235.978 540.81 236.506C541.924 237.035 542.876 237.85 543.568 238.869C552.049 323.511 566.592 330.225 572.912 332.966C585.828 338.7 621.822 343.631 654.243 343.145C682.193 342.859 708.074 338.878 716.188 328.565C726.387 315.475 733.408 282.133 736.956 229.579C737.616 221.385 735.164 213.24 730.089 206.761C725.014 200.281 717.686 195.942 709.56 194.604V194.604Z" fill="#333333"/>
<path id="Vector_2" d="M495.303 315.01C472.229 325.794 386.586 328.46 375.723 318.972C369.951 311.879 361.951 285.185 356.836 231.332C356.543 228.338 357.385 225.348 359.197 222.947C361.008 220.546 363.66 218.905 366.634 218.344C411.011 209.353 456.755 208.88 501.397 216.953C504.296 217.604 506.87 219.262 508.653 221.626C510.437 223.99 511.312 226.904 511.122 229.843C507.125 290.556 498.788 312.273 495.303 315.01Z" fill="#4F4F4F"/>
<path id="Vector_3" d="M699.705 314.109C689.449 323.808 604.315 322.733 581.699 312.697C577.86 309.796 569.077 288.398 563.586 227.958C563.343 225.033 564.154 222.117 565.873 219.738C567.591 217.359 570.104 215.673 572.956 214.986C593.236 210.397 613.958 208.047 634.749 207.978C658.658 207.823 682.533 209.793 706.093 213.865C709.054 214.36 711.722 215.944 713.576 218.307C715.429 220.669 716.334 223.638 716.112 226.633C712.281 280.374 704.743 306.989 699.705 314.109Z" fill="#4F4F4F"/>
</g>
</g>
<g id="arrow">
<path id="Alias arrow" fill-rule="evenodd" clip-rule="evenodd" d="M523.487 697.581L429.655 740.365L466.703 751.361C465.855 808.306 446.124 845.09 348.193 852.792C347.347 852.858 347.082 853.949 347.852 854.196C461.2 890.548 518.422 802.428 523.417 768.194L560.712 779.264L523.487 697.581Z" fill="black"/>
<g id="Stroke" filter="url(#filter0_d_408_186)">
<path fill-rule="evenodd" clip-rule="evenodd" d="M392.783 743.388L452.299 761.052C451.004 784.256 445.656 800.655 433.899 812.409C408.77 837.534 374.358 839.646 341.554 843.792C311.63 847.573 356.758 870.266 382.02 873.449C424.807 878.841 458.182 866.977 484.499 847.292C509.167 828.841 525.319 804.615 532.882 784.97L586.394 800.852L531.401 680.181L392.783 743.388ZM518.96 765.991C518.414 769.732 517.244 774.117 515.445 778.913C502.451 813.561 466.889 869.13 386.321 858.864C361.374 855.685 352.613 853.967 381.605 848.515C450.797 835.502 470.344 802.256 471.085 752.487L429.656 740.367L523.488 697.582L560.713 779.265L518.96 765.991Z" fill="white"/>
</g>
</g>
<g id="text">
<path id="C" d="M89.0895 795.645L82.6984 835.952C81.5219 843.372 86.4643 850.323 93.7367 851.477L106.905 853.566C114.178 854.72 121.028 849.64 122.205 842.22L123.802 832.143L110.634 830.054L109.036 840.13L95.8671 838.041L102.258 797.734L115.427 799.823L113.829 809.9L126.998 811.989L128.596 801.912C129.772 794.492 124.83 787.541 117.557 786.387L104.389 784.298C97.1162 783.144 90.266 788.225 89.0895 795.645Z" fill="black" fill-opacity="0.6"/>
<path id="C_2" d="M223.41 816.954L217.019 857.261C215.842 864.681 220.784 871.633 228.057 872.786L241.226 874.876C248.498 876.029 255.348 870.949 256.525 863.529L258.123 853.452L244.954 851.363L243.356 861.44L230.187 859.351L236.578 819.043L249.747 821.132L248.149 831.209L261.318 833.298L262.916 823.222C264.092 815.802 259.15 808.85 251.878 807.697L238.709 805.607C231.436 804.454 224.586 809.534 223.41 816.954Z" fill="black" fill-opacity="0.6"/>
<path id="L" d="M138.665 844.831L147.187 791.088L133.689 788.947L123.037 856.125L163.531 862.55L165.661 849.114L138.665 844.831Z" fill="black" fill-opacity="0.6"/>
<path id="L_2" d="M430.929 985.386L439.45 931.643L426.282 929.553L415.63 996.732L455.136 1003L457.266 989.564L430.929 985.386Z" fill="black" fill-opacity="0.6"/>
<path id="I" d="M214.521 815.544L216.651 802.108L177.145 795.841L175.015 809.277L188.184 811.366L181.793 851.673L168.624 849.584L166.493 863.02L206 869.287L208.13 855.851L194.961 853.762L201.352 813.455L214.521 815.544Z" fill="black" fill-opacity="0.6"/>
<path id="K" d="M307.284 837.148L310.479 816.994L297.311 814.905L294.115 835.058C293.526 838.77 290.103 841.309 286.465 840.732L279.881 839.687L284.142 812.815L270.973 810.726L260.321 877.905L273.49 879.994L277.751 853.123L284.335 854.167C287.973 854.745 290.443 858.218 289.854 861.93L286.659 882.084L299.827 884.173L303.023 864.019C304.199 856.599 299.257 849.648 291.985 848.494C299.257 849.648 306.107 844.567 307.284 837.148Z" fill="black" fill-opacity="0.6"/>
<path id="T" d="M179.368 890.381L138.874 883.957L136.744 897.393L150.242 899.534L141.72 953.278L155.218 955.419L163.74 901.676L177.238 903.817L179.368 890.381Z" fill="black" fill-opacity="0.6"/>
<path id="H" d="M208.339 894.978L204.078 921.849L190.58 919.708L194.841 892.836L181.343 890.695L170.691 957.874L184.189 960.015L188.45 933.144L201.948 935.285L197.687 962.157L211.185 964.298L221.837 897.119L208.339 894.978Z" fill="black" fill-opacity="0.6"/>
<path id="E" d="M261.188 917.136L263.319 903.7L236.323 899.417L222.825 897.276L212.173 964.455L252.667 970.879L254.797 957.443L227.801 953.16L229.932 939.725L250.179 942.937L252.309 929.501L232.062 926.289L234.192 912.853L261.188 917.136Z" fill="black" fill-opacity="0.6"/>
<path id="O" d="M304.645 924.03L298.254 964.338C297.077 971.758 302.02 978.709 309.292 979.863L322.461 981.952C329.734 983.105 336.584 978.025 337.76 970.605L344.151 930.298C345.328 922.878 340.385 915.927 333.113 914.773L319.944 912.684C312.672 911.53 305.822 916.61 304.645 924.03ZM324.591 968.516L311.423 966.427L317.814 926.119L330.983 928.209L324.591 968.516Z" fill="black" fill-opacity="0.6"/>
<path id="W" d="M389.556 992.596C384.388 991.776 380.001 989.069 376.942 985.302C372.865 987.937 367.86 989.154 362.692 988.334C351.563 986.569 343.974 976.116 345.739 964.984L353.195 917.959L366.627 920.09L359.171 967.115C358.583 970.827 361.111 974.31 364.822 974.898C368.533 975.487 372.015 972.958 372.603 969.246L380.059 922.221L393.492 924.352L386.035 971.377C385.447 975.088 387.976 978.572 391.686 979.16C395.397 979.749 398.879 977.219 399.467 973.508L406.924 926.483L420.356 928.614L412.899 975.639C411.134 986.77 400.684 994.361 389.556 992.596Z" fill="black" fill-opacity="0.6"/>
</g>
</g>
<rect x="0.5" y="0.5" width="1087" height="1020" stroke="black"/>
</g>
<defs>
<filter id="filter0_d_408_186" x="329.66" y="679.181" width="258.734" height="198.57" filterUnits="userSpaceOnUse" color-interpolation-filters="sRGB">
<feFlood flood-opacity="0" result="BackgroundImageFix"/>
<feColorMatrix in="SourceAlpha" type="matrix" values="0 0 0 0 0 0 0 0 0 0 0 0 0 0 0 0 0 0 127 0" result="hardAlpha"/>
<feOffset dy="1"/>
<feGaussianBlur stdDeviation="1"/>
<feColorMatrix type="matrix" values="0 0 0 0 0 0 0 0 0 0 0 0 0 0 0 0 0 0 0.6 0"/>
<feBlend mode="normal" in2="BackgroundImageFix" result="effect1_dropShadow_408_186"/>
<feBlend mode="normal" in="SourceGraphic" in2="effect1_dropShadow_408_186" result="shape"/>
</filter>
</defs>
</svg>
