<svg width="715" height="985" viewBox="0 0 715 985" fill="none" xmlns="http://www.w3.org/2000/svg">
<g id="Frame 3" clip-path="url(#clip0_408_186)">
<g id="thewhole">
<g id="owl">
<g id="Group 14">
<path id="Vector 19" d="M551.903 605.175C588.547 620.297 579.575 592.07 570.508 576.066C556.552 591.508 502.982 607.213 478.948 612.826C490.613 645.786 500.77 647.065 507.797 638.886C511.551 634.517 514.411 627.447 516.13 621.067C540.379 643.206 550.082 619.697 551.903 605.175Z" fill="#FBAF19"/>
<path id="Vector 23" d="M365.88 606.067C328.539 619.372 338.886 591.619 348.726 576.079C361.907 592.188 414.64 610.504 438.369 617.289C425.101 649.637 414.893 650.417 408.277 641.902C404.742 637.354 402.232 630.153 400.828 623.696C375.523 644.617 366.986 620.66 365.88 606.067Z" fill="#FBAF19"/>
<path id="Vector 20" d="M454.288 621.17C249 613.668 224.608 336.66 258.118 303.083C324.294 336.114 498.009 382.433 663.458 303.462C696.968 337.008 663.319 628.809 454.288 621.17Z" fill="#88CAC6"/>
<path id="Ellipse 20" d="M607.148 465.051C606.984 481.149 628.132 592.275 655.611 592.555C664.634 592.647 687.608 550.843 699.149 467.419C699.544 428.54 688.835 357.853 678.291 334.448C669.813 315.63 652.879 349.419 640.632 349.295C613.153 349.015 607.862 394.912 607.148 465.051Z" fill="#009E8F"/>
<path id="Ellipse 19" d="M324.035 466.575C325.188 482.632 310.91 594.849 283.5 596.818C274.5 597.465 249 557.152 232.354 474.596C229.569 435.814 235.914 364.603 245 340.593C252.305 321.29 271.284 353.974 283.5 353.097C310.91 351.128 319.012 396.613 324.035 466.575Z" fill="#009E8F"/>
<g id="Group 3">
<ellipse id="Ellipse 7" cx="340" cy="239.066" rx="137" ry="137.037" fill="#FFCC66"/>
<ellipse id="Ellipse 8" cx="578" cy="239.066" rx="137" ry="137.037" fill="#FFCC66"/>
</g>
<path id="Vector 22" d="M457 174.683C391 160.679 350.167 99.4963 338 70.6551C355 59.8189 403.4 39.1466 457 41.1472C510.6 39.1411 559 59.8706 576 70.7367C563.833 99.6572 523 160.641 457 174.683Z" fill="#009E8F"/>
<g id="Group 4">
<ellipse id="Ellipse 9" cx="345" cy="243.067" rx="116" ry="114.031" fill="#88CAC6"/>
<ellipse id="Ellipse 10" cx="573" cy="243.067" rx="116" ry="114.031" fill="#88CAC6"/>
</g>
<g id="Group 7">
<ellipse id="Ellipse 11" cx="379" cy="243.067" rx="82" ry="82.0224" fill="#009E8F"/>
<ellipse id="Ellipse 12" cx="543" cy="243.067" rx="82" ry="82.0224" fill="#009E8F"/>
</g>
<g id="Group 8">
<ellipse id="Ellipse 13" cx="388.5" cy="243.566" rx="72.5" ry="72.5198" fill="white"/>
<ellipse id="Ellipse 14" cx="533.5" cy="242.566" rx="72.5" ry="72.5198" fill="white"/>
</g>
<g id="Group 9">
<ellipse id="Ellipse 15" cx="394" cy="239.066" rx="45" ry="45.0123" fill="#333333"/>
<ellipse id="Ellipse 16" cx="528" cy="239.066" rx="45" ry="45.0123" fill="#333333"/>
</g>
<g id="Group 10">
<ellipse id="Ellipse 17" cx="394.5" cy="238.566" rx="24.5" ry="24.5067" fill="#54BBFF"/>
<ellipse id="Ellipse 18" cx="528.5" cy="238.566" rx="24.5" ry="24.5067" fill="#54BBFF"/>
</g>
<g id="Group 12">
<path id="Vector 26" d="M283 362.099C314.833 376.437 394.3 383.905 457.5 299.082C520.699 383.9 600.165 376.432 631.998 362.096" stroke="#007E97" stroke-width="15" stroke-linecap="round"/>
<path id="Vector 25" d="M457.501 303.083C391.403 385.987 308.293 378.687 275 364.674C296.44 389.441 344.653 440.539 365.989 446.796C387.324 453.053 423.336 487.857 438.675 504.477C441.813 508.713 450.389 517.578 457.501 519.142C464.612 517.578 473.188 508.701 476.326 504.465C491.665 487.846 527.677 453.044 549.012 446.788C570.347 440.531 618.56 389.436 640 364.671C606.707 378.683 523.598 385.982 457.501 303.083Z" fill="#88CAC6"/>
<path id="Vector 24" d="M442.168 307.084C425.368 256.67 446.835 237.398 459.668 234.064C472.502 237.398 493.469 256.67 476.668 307.084C473.334 318.254 467.368 340.993 468.168 342.594L467.168 353.097L459.168 364.1L451.168 353.097V342.594C451.968 340.993 445.501 318.254 442.168 307.084Z" fill="#515151"/>
<path id="Vector 30" d="M317 103.023C291.905 67.2722 243.333 38.1722 219 29.5032C252.5 25.0019 300 52.5095 305.5 59.0113C311 65.513 350 150.036 317 103.023Z" fill="#CCCCCC"/>
<path id="Vector 32" d="M602.118 102.892C627.213 67.2043 675.786 38.156 700.12 29.5023C666.619 25.009 619.118 52.4678 613.618 58.958C608.118 65.4483 569.117 149.821 602.118 102.892Z" fill="#CCCCCC"/>
<path id="Vector 29" d="M333 58.5163C317 22.9065 262.333 4.00137 237 -1C261.333 14.5042 310.5 55.0153 313 86.5239C313.333 89.358 315.9 97.827 323.5 109.03C333 123.034 331.5 121.533 343.5 134.037C353.1 144.04 365.5 152.542 370.5 155.543C379.167 159.711 396.8 168.246 398 169.046C399.5 170.047 412.5 176.048 422 185.551C431.5 195.054 436 200.055 444.5 213.559C451.3 224.362 458.5 231.73 459.5 234.064C460.5 231.73 466.7 224.362 473.5 213.559C482 200.055 486.5 195.054 496 185.551C505.5 176.048 518.5 170.047 520 169.046C521.2 168.246 538.833 159.711 547.5 155.543C552.5 152.542 564.9 144.04 574.5 134.037C586.5 121.533 585 123.034 594.5 109.03C602.1 97.827 604.667 89.358 605 86.5239C607.5 55.0153 656.667 14.5042 681 -1C655.667 4.00137 601 22.9065 585 58.5163C565 103.028 510.5 163.045 459 169.046C407.5 163.045 353 103.028 333 58.5163Z" fill="#E6E6E6"/>
</g>
<g id="Group 13">
<path id="Vector 33" d="M426 79.3901C437.833 70.0542 466.8 56.984 488 79.3901" stroke="#007E97"/>
<path id="Vector 34" d="M379 110.399C390.833 101.063 419.8 87.9926 441 110.399" stroke="#007E97"/>
<path id="Vector 35" d="M471 108.398C482.833 99.0623 511.8 85.9921 533 108.398" stroke="#007E97"/>
</g>
<g id="Group 11">
<path id="Vector 43" d="M427 404.479C438.833 395.143 467.8 382.073 489 404.479" stroke="#007E97"/>
<path id="Vector 44" d="M427 464.495C438.833 455.159 467.8 442.089 489 464.495" stroke="#007E97"/>
<path id="Vector 46" d="M380 435.488C391.833 426.152 420.8 413.081 442 435.488" stroke="#007E97"/>
<path id="Vector 47" d="M351 405.479C362.833 396.143 391.8 383.073 413 405.479" stroke="#007E97"/>
<path id="Vector 49" d="M472 433.487C483.833 424.151 512.8 411.081 534 433.487" stroke="#007E97"/>
<path id="Vector 50" d="M505 403.479C516.833 394.143 545.8 381.073 567 403.479" stroke="#007E97"/>
</g>
</g>
<g id="glasses3">
<path id="Vector" d="M628.56 175.604C581.64 166.983 533.51 167.418 486.774 176.885C481.622 178.149 476.849 180.625 472.852 184.105C468.855 187.585 465.751 191.97 463.796 196.893C458.508 195.394 452.9 195.455 447.649 197.068C445.595 192.185 442.403 187.861 438.34 184.456C434.276 181.05 429.458 178.662 424.286 177.489C377.439 168.987 329.406 169.507 282.775 179.021V179.021C274.779 180.561 267.646 185.016 262.764 191.52C257.882 198.025 255.601 206.112 256.363 214.21C261.141 266.704 268.815 299.805 279.35 312.725C287.647 322.851 313.64 326.417 341.59 326.132C374.389 325.839 409.896 320.266 422.757 314.581C429.028 311.694 443.384 304.705 450.022 219.855C450.715 218.868 451.65 218.076 452.738 217.552C453.825 217.029 455.029 216.792 456.235 216.865C457.462 216.757 458.697 216.978 459.81 217.506C460.923 218.035 461.876 218.85 462.568 219.869C471.049 304.511 485.592 311.225 491.912 313.966C504.828 319.7 540.821 324.631 573.243 324.145C601.193 323.859 627.074 319.878 635.188 309.565C645.387 296.475 652.408 263.133 655.956 210.579C656.616 202.385 654.164 194.24 649.089 187.761C644.014 181.281 636.686 176.942 628.56 175.604V175.604Z" fill="#333333"/>
<path id="Vector_2" d="M414.303 296.01C391.229 306.794 305.586 309.46 294.723 299.972C288.951 292.879 280.951 266.185 275.836 212.332C275.543 209.338 276.385 206.348 278.197 203.947C280.008 201.546 282.66 199.905 285.634 199.344C330.011 190.353 375.755 189.88 420.397 197.953C423.296 198.604 425.87 200.262 427.653 202.626C429.437 204.99 430.312 207.904 430.122 210.843C426.125 271.556 417.788 293.273 414.303 296.01Z" fill="#4F4F4F"/>
<path id="Vector_3" d="M618.705 295.109C608.449 304.808 523.315 303.733 500.699 293.697C496.86 290.796 488.077 269.398 482.586 208.958C482.343 206.033 483.154 203.117 484.873 200.738C486.591 198.359 489.104 196.673 491.956 195.986C512.236 191.397 532.958 189.047 553.749 188.978C577.658 188.823 601.533 190.793 625.093 194.865C628.054 195.36 630.722 196.944 632.576 199.307C634.429 201.669 635.334 204.638 635.112 207.633C631.281 261.374 623.742 287.989 618.705 295.109Z" fill="#4F4F4F"/>
</g>
</g>
<g id="arrow">
<path id="Alias arrow" fill-rule="evenodd" clip-rule="evenodd" d="M442.487 678.581L348.655 721.365L385.703 732.361C384.855 789.306 365.124 826.09 267.194 833.792C266.347 833.858 266.082 834.949 266.852 835.196C380.2 871.548 437.422 783.428 442.417 749.194L479.712 760.264L442.487 678.581Z" fill="black"/>
<g id="Stroke" filter="url(#filter0_d_408_186)">
<path fill-rule="evenodd" clip-rule="evenodd" d="M311.783 724.388L371.3 742.052C370.004 765.256 364.656 781.655 352.899 793.409C327.77 818.534 293.359 820.646 260.554 824.792C230.63 828.573 275.758 851.266 301.02 854.449C343.808 859.841 377.183 847.977 403.5 828.292C428.168 809.841 444.319 785.615 451.882 765.97L505.394 781.852L450.401 661.181L311.783 724.388ZM437.96 746.991C437.414 750.732 436.244 755.117 434.446 759.913C421.451 794.561 385.889 850.13 305.322 839.864C280.374 836.685 271.613 834.967 300.605 829.515C369.797 816.502 389.344 783.256 390.085 733.487L348.656 721.367L442.488 678.582L479.713 760.265L437.96 746.991Z" fill="white"/>
</g>
</g>
<g id="text">
<path id="C" d="M8.08949 776.645L1.69837 816.952C0.521872 824.372 5.4643 831.323 12.7367 832.477L25.9055 834.566C33.1779 835.72 40.0281 830.64 41.2046 823.22L42.8024 813.143L29.6336 811.054L28.0358 821.13L14.8671 819.041L21.2582 778.734L34.427 780.823L32.8292 790.9L45.9979 792.989L47.5957 782.912C48.7722 775.492 43.8298 768.541 36.5573 767.387L23.3886 765.298C16.1162 764.144 9.26599 769.225 8.08949 776.645Z" fill="black" fill-opacity="0.6"/>
<path id="C_2" d="M142.41 797.954L136.019 838.261C134.842 845.681 139.784 852.633 147.057 853.786L160.226 855.876C167.498 857.029 174.348 851.949 175.525 844.529L177.123 834.452L163.954 832.363L162.356 842.44L149.187 840.351L155.578 800.043L168.747 802.132L167.149 812.209L180.318 814.298L181.916 804.222C183.092 796.802 178.15 789.85 170.878 788.697L157.709 786.607C150.436 785.454 143.586 790.534 142.41 797.954Z" fill="black" fill-opacity="0.6"/>
<path id="L" d="M57.6652 825.831L66.1867 772.088L52.6888 769.947L42.0369 837.125L82.5307 843.55L84.6611 830.114L57.6652 825.831Z" fill="black" fill-opacity="0.6"/>
<path id="L_2" d="M349.929 966.386L358.45 912.643L345.282 910.553L334.63 977.732L374.136 984L376.266 970.564L349.929 966.386Z" fill="black" fill-opacity="0.6"/>
<path id="I" d="M133.521 796.544L135.651 783.108L96.1453 776.841L94.0149 790.277L107.184 792.366L100.793 832.673L87.6238 830.584L85.4934 844.02L125 850.287L127.13 836.851L113.961 834.762L120.352 794.455L133.521 796.544Z" fill="black" fill-opacity="0.6"/>
<path id="K" d="M226.284 818.148L229.479 797.994L216.311 795.905L213.115 816.058C212.526 819.77 209.103 822.309 205.465 821.732L198.881 820.687L203.142 793.815L189.973 791.726L179.321 858.905L192.49 860.994L196.751 834.123L203.335 835.167C206.973 835.745 209.443 839.218 208.854 842.93L205.659 863.084L218.827 865.173L222.023 845.019C223.199 837.599 218.257 830.648 210.985 829.494C218.257 830.648 225.107 825.567 226.284 818.148Z" fill="black" fill-opacity="0.6"/>
<path id="T" d="M98.368 871.381L57.8741 864.957L55.7438 878.393L69.2417 880.534L60.7202 934.278L74.2182 936.419L82.7397 882.676L96.2376 884.817L98.368 871.381Z" fill="black" fill-opacity="0.6"/>
<path id="H" d="M127.339 875.978L123.078 902.849L109.58 900.708L113.841 873.836L100.343 871.695L89.6914 938.874L103.189 941.015L107.45 914.144L120.948 916.285L116.687 943.157L130.185 945.298L140.837 878.119L127.339 875.978Z" fill="black" fill-opacity="0.6"/>
<path id="E" d="M180.188 898.136L182.319 884.7L155.323 880.417L141.825 878.276L131.173 945.455L171.667 951.879L173.797 938.443L146.801 934.16L148.932 920.725L169.179 923.937L171.309 910.501L151.062 907.289L153.192 893.853L180.188 898.136Z" fill="black" fill-opacity="0.6"/>
<path id="O" d="M223.645 905.03L217.254 945.338C216.077 952.758 221.02 959.709 228.292 960.863L241.461 962.952C248.734 964.105 255.584 959.025 256.76 951.605L263.151 911.298C264.328 903.878 259.385 896.927 252.113 895.773L238.944 893.684C231.672 892.53 224.822 897.61 223.645 905.03ZM243.591 949.516L230.423 947.427L236.814 907.119L249.983 909.209L243.591 949.516Z" fill="black" fill-opacity="0.6"/>
<path id="W" d="M308.556 973.596C303.388 972.776 299.001 970.069 295.942 966.302C291.865 968.937 286.86 970.154 281.692 969.334C270.563 967.569 262.974 957.116 264.739 945.984L272.195 898.959L285.627 901.09L278.171 948.115C277.583 951.827 280.111 955.31 283.822 955.898C287.533 956.487 291.015 953.958 291.603 950.246L299.059 903.221L312.492 905.352L305.035 952.377C304.447 956.088 306.976 959.572 310.686 960.16C314.397 960.749 317.879 958.219 318.467 954.508L325.924 907.483L339.356 909.614L331.899 956.639C330.134 967.77 319.684 975.361 308.556 973.596Z" fill="black" fill-opacity="0.6"/>
</g>
</g>
</g>
<defs>
<filter id="filter0_d_408_186" x="248.66" y="660.181" width="258.734" height="198.57" filterUnits="userSpaceOnUse" color-interpolation-filters="sRGB">
<feFlood flood-opacity="0" result="BackgroundImageFix"/>
<feColorMatrix in="SourceAlpha" type="matrix" values="0 0 0 0 0 0 0 0 0 0 0 0 0 0 0 0 0 0 127 0" result="hardAlpha"/>
<feOffset dy="1"/>
<feGaussianBlur stdDeviation="1"/>
<feColorMatrix type="matrix" values="0 0 0 0 0 0 0 0 0 0 0 0 0 0 0 0 0 0 0.6 0"/>
<feBlend mode="normal" in2="BackgroundImageFix" result="effect1_dropShadow_408_186"/>
<feBlend mode="normal" in="SourceGraphic" in2="effect1_dropShadow_408_186" result="shape"/>
</filter>
<clipPath id="clip0_408_186">
<rect width="715" height="985" fill="white"/>
</clipPath>
</defs>
</svg>
