<svg width="400" height="390" viewBox="0 0 400 390" fill="none" xmlns="http://www.w3.org/2000/svg">
<g id="solokuluna" clip-path="url(#clip0_632_486)">
<rect width="399.213" height="390" fill="#2A3D45"/>
<g id="Group 18">
<g id="5">
<g id="clouds" filter="url(#filter0_b_632_486)">
<g id="clouds_2" filter="url(#filter1_i_632_486)">
<path d="M322.376 183.679C322.678 181.968 322.835 180.209 322.835 178.414C322.835 161.617 309.081 148 292.116 148C279.503 148 268.666 155.526 263.935 166.289C260.102 163.013 255.129 161.034 249.694 161.034C237.576 161.034 227.752 170.869 227.752 183C227.752 183.676 227.783 184.344 227.842 185.004C222.013 187.831 218 193.762 218 200.621C218 210.219 225.859 218 235.554 218H318.446C328.141 218 336 210.219 336 200.621C336 192.36 330.179 185.445 322.376 183.679Z" fill="url(#paint0_linear_632_486)"/>
</g>
</g>
<g id="moonandhallo">
<g id="hello" filter="url(#filter2_f_632_486)">
<path d="M225.855 131.134C200.788 165.168 196.442 211.614 218.554 249.914C240.666 288.213 283.063 307.672 325.07 302.981C316.138 315.108 304.576 325.659 290.642 333.704C237.604 364.325 170.296 347.038 140.304 295.091C110.313 243.145 128.996 176.21 182.034 145.589C195.967 137.544 210.886 132.806 225.855 131.134Z" fill="#FFEE94"/>
</g>
<g id="moon" filter="url(#filter3_i_632_486)">
<path d="M223.517 145.476C200.636 176.543 196.668 218.941 216.853 253.902C237.038 288.863 275.739 306.626 314.085 302.343C305.931 313.413 295.377 323.044 282.657 330.388C234.243 358.34 172.801 342.56 145.424 295.141C118.047 247.723 135.101 186.623 183.516 158.67C196.235 151.327 209.854 147.002 223.517 145.476Z" fill="url(#paint1_linear_632_486)"/>
</g>
</g>
<g id="clouds_3" filter="url(#filter4_b_632_486)">
<g id="clouds_4" filter="url(#filter5_i_632_486)">
<path d="M208.68 313.253C209.129 310.701 209.364 308.075 209.364 305.395C209.364 280.324 188.85 260 163.545 260C144.734 260 128.57 271.232 121.513 287.297C115.797 282.407 108.379 279.455 100.273 279.455C82.198 279.455 67.5455 294.133 67.5455 312.24C67.5455 313.249 67.5909 314.246 67.6798 315.231C58.9862 319.45 53 328.303 53 338.541C53 352.867 64.722 364.481 79.1818 364.481H202.818C217.278 364.481 229 352.867 229 338.541C229 326.211 220.317 315.89 208.68 313.253Z" fill="url(#paint2_linear_632_486)"/>
</g>
</g>
<g id="1" filter="url(#filter6_di_632_486)">
<path d="M247.765 61.3823C237.249 66.0521 233.144 69.9984 229.382 79.7646C226.386 70.3001 222.702 66.0785 211 61.3823C223.038 57.4602 226.305 52.9199 229.382 43C233.164 52.1426 235.499 57.1323 247.765 61.3823Z" fill="url(#paint3_linear_632_486)"/>
</g>
<g id="1_2" filter="url(#filter7_di_632_486)">
<path d="M140.765 148.382C130.249 153.052 126.144 156.998 122.382 166.765C119.386 157.3 115.702 153.079 104 148.382C116.038 144.46 119.305 139.92 122.382 130C126.164 139.143 128.499 144.132 140.765 148.382Z" fill="url(#paint4_linear_632_486)"/>
</g>
<g id="1_3" filter="url(#filter8_di_632_486)">
<path d="M313.382 267.765C302.866 272.434 298.762 276.381 295 286.147C292.004 276.682 288.32 272.461 276.617 267.765C288.655 263.843 291.922 259.302 295 249.382C298.781 258.525 301.116 263.515 313.382 267.765Z" fill="url(#paint5_linear_632_486)"/>
</g>
</g>
<g id="3">
<g id="sunandhallo">
<g id="hallo" filter="url(#filter9_f_632_486)">
<rect x="87" y="99" width="240" height="226" rx="94" fill="#FFEF9A"/>
</g>
<g id="sun" filter="url(#filter10_i_632_486)">
<path d="M311 230C311 287.438 264.438 334 207 334C149.562 334 103 287.438 103 230C103 172.562 149.562 126 207 126C264.438 126 311 172.562 311 230Z" fill="url(#paint6_linear_632_486)"/>
</g>
</g>
<g id="clouds_5" filter="url(#filter11_b_632_486)">
<g id="clouds_6" filter="url(#filter12_i_632_486)">
<path d="M238.445 281.828C239.033 278.481 239.339 275.038 239.339 271.524C239.339 238.65 212.531 212 179.463 212C154.879 212 133.756 226.728 124.534 247.793C117.064 241.382 107.37 237.51 96.7769 237.51C73.1564 237.51 54.0083 256.757 54.0083 280.5C54.0083 281.822 54.0676 283.13 54.1839 284.422C42.8229 289.954 35 301.562 35 314.986C35 333.772 50.3185 349 69.2149 349H230.785C249.681 349 265 333.772 265 314.986C265 298.819 253.654 285.286 238.445 281.828Z" fill="url(#paint7_linear_632_486)"/>
</g>
</g>
</g>
</g>
</g>
<defs>
<filter id="filter0_b_632_486" x="191" y="121" width="172" height="124" filterUnits="userSpaceOnUse" color-interpolation-filters="sRGB">
<feFlood flood-opacity="0" result="BackgroundImageFix"/>
<feGaussianBlur in="BackgroundImage" stdDeviation="13.5"/>
<feComposite in2="SourceAlpha" operator="in" result="effect1_backgroundBlur_632_486"/>
<feBlend mode="normal" in="SourceGraphic" in2="effect1_backgroundBlur_632_486" result="shape"/>
</filter>
<filter id="filter1_i_632_486" x="218" y="148" width="118" height="80" filterUnits="userSpaceOnUse" color-interpolation-filters="sRGB">
<feFlood flood-opacity="0" result="BackgroundImageFix"/>
<feBlend mode="normal" in="SourceGraphic" in2="BackgroundImageFix" result="shape"/>
<feColorMatrix in="SourceAlpha" type="matrix" values="0 0 0 0 0 0 0 0 0 0 0 0 0 0 0 0 0 0 127 0" result="hardAlpha"/>
<feOffset dy="11"/>
<feGaussianBlur stdDeviation="5"/>
<feComposite in2="hardAlpha" operator="arithmetic" k2="-1" k3="1"/>
<feColorMatrix type="matrix" values="0 0 0 0 1 0 0 0 0 1 0 0 0 0 1 0 0 0 1 0"/>
<feBlend mode="normal" in2="shape" result="effect1_innerShadow_632_486"/>
</filter>
<filter id="filter2_f_632_486" x="72.9941" y="78.1342" width="305.076" height="323.713" filterUnits="userSpaceOnUse" color-interpolation-filters="sRGB">
<feFlood flood-opacity="0" result="BackgroundImageFix"/>
<feBlend mode="normal" in="SourceGraphic" in2="BackgroundImageFix" result="shape"/>
<feGaussianBlur stdDeviation="26.5" result="effect1_foregroundBlur_632_486"/>
</filter>
<filter id="filter3_i_632_486" x="132.362" y="145.476" width="181.723" height="202.735" filterUnits="userSpaceOnUse" color-interpolation-filters="sRGB">
<feFlood flood-opacity="0" result="BackgroundImageFix"/>
<feBlend mode="normal" in="SourceGraphic" in2="BackgroundImageFix" result="shape"/>
<feColorMatrix in="SourceAlpha" type="matrix" values="0 0 0 0 0 0 0 0 0 0 0 0 0 0 0 0 0 0 127 0" result="hardAlpha"/>
<feOffset dy="4"/>
<feGaussianBlur stdDeviation="4"/>
<feComposite in2="hardAlpha" operator="arithmetic" k2="-1" k3="1"/>
<feColorMatrix type="matrix" values="0 0 0 0 1 0 0 0 0 1 0 0 0 0 1 0 0 0 0.55 0"/>
<feBlend mode="normal" in2="shape" result="effect1_innerShadow_632_486"/>
</filter>
<filter id="filter4_b_632_486" x="26" y="233" width="230" height="158.481" filterUnits="userSpaceOnUse" color-interpolation-filters="sRGB">
<feFlood flood-opacity="0" result="BackgroundImageFix"/>
<feGaussianBlur in="BackgroundImage" stdDeviation="13.5"/>
<feComposite in2="SourceAlpha" operator="in" result="effect1_backgroundBlur_632_486"/>
<feBlend mode="normal" in="SourceGraphic" in2="effect1_backgroundBlur_632_486" result="shape"/>
</filter>
<filter id="filter5_i_632_486" x="53" y="260" width="176" height="114.481" filterUnits="userSpaceOnUse" color-interpolation-filters="sRGB">
<feFlood flood-opacity="0" result="BackgroundImageFix"/>
<feBlend mode="normal" in="SourceGraphic" in2="BackgroundImageFix" result="shape"/>
<feColorMatrix in="SourceAlpha" type="matrix" values="0 0 0 0 0 0 0 0 0 0 0 0 0 0 0 0 0 0 127 0" result="hardAlpha"/>
<feOffset dy="11"/>
<feGaussianBlur stdDeviation="5"/>
<feComposite in2="hardAlpha" operator="arithmetic" k2="-1" k3="1"/>
<feColorMatrix type="matrix" values="0 0 0 0 1 0 0 0 0 1 0 0 0 0 1 0 0 0 1 0"/>
<feBlend mode="normal" in2="shape" result="effect1_innerShadow_632_486"/>
</filter>
<filter id="filter6_di_632_486" x="202.233" y="43" width="54.2995" height="56.5321" filterUnits="userSpaceOnUse" color-interpolation-filters="sRGB">
<feFlood flood-opacity="0" result="BackgroundImageFix"/>
<feColorMatrix in="SourceAlpha" type="matrix" values="0 0 0 0 0 0 0 0 0 0 0 0 0 0 0 0 0 0 127 0" result="hardAlpha"/>
<feOffset dy="11"/>
<feGaussianBlur stdDeviation="4.38372"/>
<feColorMatrix type="matrix" values="0 0 0 0 0.285052 0 0 0 0 0.179688 0 0 0 0 0.9375 0 0 0 1 0"/>
<feBlend mode="normal" in2="BackgroundImageFix" result="effect1_dropShadow_632_486"/>
<feBlend mode="normal" in="SourceGraphic" in2="effect1_dropShadow_632_486" result="shape"/>
<feColorMatrix in="SourceAlpha" type="matrix" values="0 0 0 0 0 0 0 0 0 0 0 0 0 0 0 0 0 0 127 0" result="hardAlpha"/>
<feOffset dy="4"/>
<feGaussianBlur stdDeviation="2"/>
<feComposite in2="hardAlpha" operator="arithmetic" k2="-1" k3="1"/>
<feColorMatrix type="matrix" values="0 0 0 0 1 0 0 0 0 1 0 0 0 0 1 0 0 0 0.44 0"/>
<feBlend mode="normal" in2="shape" result="effect2_innerShadow_632_486"/>
</filter>
<filter id="filter7_di_632_486" x="95.2326" y="130" width="54.2995" height="56.5321" filterUnits="userSpaceOnUse" color-interpolation-filters="sRGB">
<feFlood flood-opacity="0" result="BackgroundImageFix"/>
<feColorMatrix in="SourceAlpha" type="matrix" values="0 0 0 0 0 0 0 0 0 0 0 0 0 0 0 0 0 0 127 0" result="hardAlpha"/>
<feOffset dy="11"/>
<feGaussianBlur stdDeviation="4.38372"/>
<feColorMatrix type="matrix" values="0 0 0 0 0.285052 0 0 0 0 0.179688 0 0 0 0 0.9375 0 0 0 0.28 0"/>
<feBlend mode="normal" in2="BackgroundImageFix" result="effect1_dropShadow_632_486"/>
<feBlend mode="normal" in="SourceGraphic" in2="effect1_dropShadow_632_486" result="shape"/>
<feColorMatrix in="SourceAlpha" type="matrix" values="0 0 0 0 0 0 0 0 0 0 0 0 0 0 0 0 0 0 127 0" result="hardAlpha"/>
<feOffset dy="4"/>
<feGaussianBlur stdDeviation="2"/>
<feComposite in2="hardAlpha" operator="arithmetic" k2="-1" k3="1"/>
<feColorMatrix type="matrix" values="0 0 0 0 1 0 0 0 0 1 0 0 0 0 1 0 0 0 0.44 0"/>
<feBlend mode="normal" in2="shape" result="effect2_innerShadow_632_486"/>
</filter>
<filter id="filter8_di_632_486" x="267.85" y="249.382" width="54.2995" height="56.5321" filterUnits="userSpaceOnUse" color-interpolation-filters="sRGB">
<feFlood flood-opacity="0" result="BackgroundImageFix"/>
<feColorMatrix in="SourceAlpha" type="matrix" values="0 0 0 0 0 0 0 0 0 0 0 0 0 0 0 0 0 0 127 0" result="hardAlpha"/>
<feOffset dy="11"/>
<feGaussianBlur stdDeviation="4.38372"/>
<feColorMatrix type="matrix" values="0 0 0 0 0.285052 0 0 0 0 0.179688 0 0 0 0 0.9375 0 0 0 0.8 0"/>
<feBlend mode="normal" in2="BackgroundImageFix" result="effect1_dropShadow_632_486"/>
<feBlend mode="normal" in="SourceGraphic" in2="effect1_dropShadow_632_486" result="shape"/>
<feColorMatrix in="SourceAlpha" type="matrix" values="0 0 0 0 0 0 0 0 0 0 0 0 0 0 0 0 0 0 127 0" result="hardAlpha"/>
<feOffset dy="4"/>
<feGaussianBlur stdDeviation="2"/>
<feComposite in2="hardAlpha" operator="arithmetic" k2="-1" k3="1"/>
<feColorMatrix type="matrix" values="0 0 0 0 1 0 0 0 0 1 0 0 0 0 1 0 0 0 0.44 0"/>
<feBlend mode="normal" in2="shape" result="effect2_innerShadow_632_486"/>
</filter>
<filter id="filter9_f_632_486" x="10" y="22" width="394" height="380" filterUnits="userSpaceOnUse" color-interpolation-filters="sRGB">
<feFlood flood-opacity="0" result="BackgroundImageFix"/>
<feBlend mode="normal" in="SourceGraphic" in2="BackgroundImageFix" result="shape"/>
<feGaussianBlur stdDeviation="38.5" result="effect1_foregroundBlur_632_486"/>
</filter>
<filter id="filter10_i_632_486" x="103" y="126" width="208" height="213" filterUnits="userSpaceOnUse" color-interpolation-filters="sRGB">
<feFlood flood-opacity="0" result="BackgroundImageFix"/>
<feBlend mode="normal" in="SourceGraphic" in2="BackgroundImageFix" result="shape"/>
<feColorMatrix in="SourceAlpha" type="matrix" values="0 0 0 0 0 0 0 0 0 0 0 0 0 0 0 0 0 0 127 0" result="hardAlpha"/>
<feOffset dy="5"/>
<feGaussianBlur stdDeviation="9"/>
<feComposite in2="hardAlpha" operator="arithmetic" k2="-1" k3="1"/>
<feColorMatrix type="matrix" values="0 0 0 0 1 0 0 0 0 1 0 0 0 0 1 0 0 0 0.81 0"/>
<feBlend mode="normal" in2="shape" result="effect1_innerShadow_632_486"/>
</filter>
<filter id="filter11_b_632_486" x="8" y="185" width="284" height="191" filterUnits="userSpaceOnUse" color-interpolation-filters="sRGB">
<feFlood flood-opacity="0" result="BackgroundImageFix"/>
<feGaussianBlur in="BackgroundImage" stdDeviation="13.5"/>
<feComposite in2="SourceAlpha" operator="in" result="effect1_backgroundBlur_632_486"/>
<feBlend mode="normal" in="SourceGraphic" in2="effect1_backgroundBlur_632_486" result="shape"/>
</filter>
<filter id="filter12_i_632_486" x="35" y="212" width="230" height="147" filterUnits="userSpaceOnUse" color-interpolation-filters="sRGB">
<feFlood flood-opacity="0" result="BackgroundImageFix"/>
<feBlend mode="normal" in="SourceGraphic" in2="BackgroundImageFix" result="shape"/>
<feColorMatrix in="SourceAlpha" type="matrix" values="0 0 0 0 0 0 0 0 0 0 0 0 0 0 0 0 0 0 127 0" result="hardAlpha"/>
<feOffset dy="11"/>
<feGaussianBlur stdDeviation="5"/>
<feComposite in2="hardAlpha" operator="arithmetic" k2="-1" k3="1"/>
<feColorMatrix type="matrix" values="0 0 0 0 1 0 0 0 0 1 0 0 0 0 1 0 0 0 1 0"/>
<feBlend mode="normal" in2="shape" result="effect1_innerShadow_632_486"/>
</filter>
<linearGradient id="paint0_linear_632_486" x1="225.505" y1="211.75" x2="344.487" y2="122.711" gradientUnits="userSpaceOnUse">
<stop stop-color="white"/>
<stop offset="1" stop-color="white" stop-opacity="0.58"/>
</linearGradient>
<linearGradient id="paint1_linear_632_486" x1="228.5" y1="129" x2="192.175" y2="348.951" gradientUnits="userSpaceOnUse">
<stop stop-color="#FFEE94"/>
<stop offset="1" stop-color="#FF9900"/>
</linearGradient>
<linearGradient id="paint2_linear_632_486" x1="64.1943" y1="355.152" x2="241.749" y2="222.375" gradientUnits="userSpaceOnUse">
<stop stop-color="white"/>
<stop offset="1" stop-color="white" stop-opacity="0.58"/>
</linearGradient>
<linearGradient id="paint3_linear_632_486" x1="224.064" y1="81.4872" x2="241.366" y2="49.0026" gradientUnits="userSpaceOnUse">
<stop stop-color="#FF9900"/>
<stop offset="1" stop-color="#FFEE94"/>
</linearGradient>
<linearGradient id="paint4_linear_632_486" x1="117.064" y1="168.487" x2="134.366" y2="136.003" gradientUnits="userSpaceOnUse">
<stop stop-color="#FF9900"/>
<stop offset="1" stop-color="#FFEE94"/>
</linearGradient>
<linearGradient id="paint5_linear_632_486" x1="286.064" y1="269.487" x2="303.366" y2="237.003" gradientUnits="userSpaceOnUse">
<stop stop-color="#FF9900"/>
<stop offset="1" stop-color="#FFEE94"/>
</linearGradient>
<linearGradient id="paint6_linear_632_486" x1="191.203" y1="286.608" x2="276.772" y2="136.532" gradientUnits="userSpaceOnUse">
<stop stop-color="#FF9900"/>
<stop offset="1" stop-color="#FFEE94"/>
</linearGradient>
<linearGradient id="paint7_linear_632_486" x1="49.629" y1="336.768" x2="282.224" y2="163.419" gradientUnits="userSpaceOnUse">
<stop stop-color="white"/>
<stop offset="1" stop-color="white" stop-opacity="0.58"/>
</linearGradient>
<clipPath id="clip0_632_486">
<rect width="399.213" height="390" fill="white"/>
</clipPath>
</defs>
</svg>
