<svg width="415" height="221" viewBox="0 0 415 221" fill="none" xmlns="http://www.w3.org/2000/svg">
<g id="Group 22">
<path id="C" d="M23.0896 13.4321L16.6985 53.7284C15.522 61.1463 20.4644 68.0957 27.7368 69.2491L40.9056 71.3377C48.178 72.4912 55.0282 67.4121 56.2047 59.9942L57.8025 49.9202L44.6337 47.8316L43.0359 57.9056L29.8672 55.817L36.2583 15.5207L49.4271 17.6093L47.8293 27.6834L60.998 29.772L62.5958 19.6979C63.7723 12.28 58.8299 5.33063 51.5574 4.1772L38.3887 2.0886C31.1163 0.935171 24.2661 6.01423 23.0896 13.4321Z" fill="black" fill-opacity="0.6"/>
<path id="C_2" d="M157.411 34.7358L151.02 75.0321C149.843 82.45 154.785 89.3994 162.058 90.5529L175.227 92.6415C182.499 93.7949 189.349 88.7158 190.526 81.2979L192.124 71.2239L178.955 69.1353L177.357 79.2093L164.188 77.1207L170.579 36.8244L183.748 38.913L182.15 48.9871L195.319 51.0757L196.917 41.0016C198.093 33.5837 193.151 26.6343 185.878 25.4809L172.71 23.3923C165.437 22.2389 158.587 27.3179 157.411 34.7358Z" fill="black" fill-opacity="0.6"/>
<path id="L" d="M72.6657 62.6051L81.1872 8.87666L67.6892 6.73584L57.0373 73.8964L97.5312 80.3188L99.6616 66.8867L72.6657 62.6051Z" fill="black" fill-opacity="0.6"/>
<path id="L_2" d="M364.929 203.121L373.45 149.393L360.282 147.304L349.63 214.465L389.136 220.731L391.266 207.298L364.929 203.121Z" fill="black" fill-opacity="0.6"/>
<path id="I" d="M148.522 33.3261L150.652 19.894L111.146 13.6282L109.016 27.0603L122.184 29.1489L115.793 69.4452L102.625 67.3566L100.494 80.7887L140 87.0545L142.131 73.6224L128.962 71.5338L135.353 31.2375L148.522 33.3261Z" fill="black" fill-opacity="0.6"/>
<path id="K" d="M241.284 54.9235L244.479 34.7753L231.311 32.6867L228.115 52.8349C227.527 56.5455 224.103 59.0836 220.465 58.5066L213.881 57.4623L218.142 30.5981L204.973 28.5095L194.321 95.6701L207.49 97.7587L211.751 70.8944L218.335 71.9387C221.973 72.5157 224.443 75.9885 223.854 79.6991L220.659 99.8473L233.827 101.936L237.023 81.7877C238.2 74.3698 233.257 67.4204 225.985 66.267C233.257 67.4204 240.107 62.3414 241.284 54.9235Z" fill="black" fill-opacity="0.6"/>
<path id="T" d="M113.368 108.143L72.8743 101.72L70.7439 115.153L84.2418 117.293L75.7204 171.022L89.2183 173.163L97.7398 119.434L111.238 121.575L113.368 108.143Z" fill="black" fill-opacity="0.6"/>
<path id="H" d="M142.339 112.738L138.079 139.602L124.581 137.461L128.841 110.597L115.344 108.456L104.692 175.617L118.19 177.758L122.45 150.893L135.948 153.034L131.688 179.898L145.185 182.039L155.837 114.879L142.339 112.738Z" fill="black" fill-opacity="0.6"/>
<path id="E" d="M195.188 134.89L197.319 121.458L170.323 117.176L156.825 115.035L146.173 182.196L186.667 188.618L188.797 175.186L161.801 170.905L163.932 157.473L184.179 160.684L186.309 147.252L166.062 144.04L168.193 130.608L195.188 134.89Z" fill="black" fill-opacity="0.6"/>
<path id="O" d="M238.645 141.782L232.254 182.079C231.078 189.497 236.02 196.446 243.293 197.599L256.461 199.688C263.734 200.842 270.584 195.762 271.76 188.345L278.151 148.048C279.328 140.63 274.386 133.681 267.113 132.528L253.944 130.439C246.672 129.286 239.822 134.365 238.645 141.782ZM258.592 186.256L245.423 184.167L251.814 143.871L264.983 145.96L258.592 186.256Z" fill="black" fill-opacity="0.6"/>
<path id="W" d="M323.556 210.329C318.388 209.51 314.001 206.804 310.942 203.038C306.865 205.672 301.86 206.888 296.692 206.069C285.563 204.304 277.974 193.854 279.739 182.725L287.195 135.713L300.627 137.843L293.171 184.855C292.583 188.566 295.111 192.048 298.822 192.637C302.533 193.225 306.015 190.696 306.603 186.986L314.06 139.973L327.492 142.104L320.035 189.116C319.447 192.827 321.976 196.309 325.686 196.897C329.397 197.486 332.879 194.957 333.467 191.247L340.924 144.234L354.356 146.365L346.9 193.377C345.135 204.505 334.684 212.095 323.556 210.329Z" fill="black" fill-opacity="0.6"/>
</g>
</svg>
